<?xml version="1.0" encoding="UTF-8"?>
<svg id="Layer_1" data-name="Layer 1" xmlns="http://www.w3.org/2000/svg" viewBox="0 0 959.1 829.55">
  <defs>
    <style>
      .cls-1 {
        fill: #fff;
      }
    </style>
  </defs>
  <path class="cls-1" d="M636.89,659.69c-31.12,0-60.67-5.93-87.85-17.64-27.06-11.66-50.87-27.99-70.76-48.55-19.82-20.47-35.52-44.84-46.69-72.42-11.16-27.58-16.82-57.63-16.82-89.32s5.66-61.74,16.82-89.32c11.16-27.58,26.87-51.94,46.69-72.42,19.87-20.54,43.68-36.87,70.75-48.54,27.19-11.71,56.74-17.64,87.86-17.64,25.75,0,50.35,3.41,73.13,10.13,23.06,6.81,44.16,16.77,62.74,29.6,18.96,13.1,35.31,29.55,48.6,48.9,13.11,19.12,23.09,40.84,29.68,64.56l6.69,35.15h-109.44l-6.77-17.94c-7.94-21.05-20.58-36.77-38.66-48.07-18.89-11.81-40.47-17.55-65.97-17.55-16.31,0-30.91,3-44.63,9.17-14,6.29-25.83,14.68-36.17,25.65-10.31,10.94-18.59,24.11-24.6,39.14-6,15-9.04,31.55-9.04,49.19s3.04,34.19,9.04,49.17c6.01,15.05,14.29,28.22,24.61,39.15,10.34,10.98,22.17,19.37,36.16,25.65,13.72,6.17,28.32,9.17,44.64,9.17,25.5,0,47.07-5.74,65.97-17.55,18.07-11.3,30.72-27.02,38.66-48.07l6.77-17.94h109.44l-6.68,35.15c-6.6,23.74-16.58,45.46-29.67,64.55-13.29,19.37-29.64,35.83-48.6,48.91-18.58,12.84-39.69,22.8-62.74,29.6-22.78,6.72-47.38,10.13-73.13,10.13Z"/>
  <path class="cls-1" d="M538.79,367.21c-13.29,19.37-29.04,35.83-48,48.91-18.58,12.84-39.69,22.8-62.74,29.6-22.78,6.72-47.38,10.13-73.13,10.13-31.12,0-60.67-5.93-87.85-17.64-27.06-11.66-50.87-27.99-70.76-48.55-19.82-20.47-35.52-44.84-46.69-72.42-11.16-27.58-16.82-57.63-16.82-89.32s5.66-61.74,16.82-89.32c11.16-27.58,26.87-51.94,46.69-72.42,19.87-20.54,43.68-36.87,70.75-48.54C294.23,5.93,323.79,0,354.91,0c25.75,0,50.35,3.41,73.13,10.13,23.06,6.81,44.16,16.77,62.74,29.6,18.96,13.1,35.31,29.55,48.6,48.9,13.11,19.12,23.09,40.84,29.68,64.56l6.69,35.15h-109.44l-6.77-17.94c-7.94-21.05-20.58-36.77-38.66-48.07-18.89-11.81-40.47-17.55-65.97-17.55-16.31,0-30.91,3-44.63,9.17-14,6.29-25.83,14.68-36.17,25.65-10.31,10.94-18.59,24.11-24.6,39.14-6,15-9.04,31.55-9.04,49.19s3.04,34.19,9.04,49.17c6.01,15.05,14.29,28.22,24.61,39.15,10.34,10.98,22.17,19.37,36.16,25.65,13.72,6.17,28.32,9.17,44.64,9.17,25.5,0,61.81-6.13,80.71-17.94l103.17,34.08Z"/>
  <g>
    <path class="cls-1" d="M75.25,767.43c-.7,7.03-2.61,13.01-5.73,17.95-3.12,4.94-7.32,8.7-12.61,11.28-5.29,2.58-11.59,3.86-18.9,3.86-7.68,0-14.37-1.91-20.06-5.73-5.69-3.82-10.11-9.16-13.24-16.02-3.14-6.86-4.71-14.86-4.71-24v-13.63c0-9.13,1.57-17.13,4.71-24,3.14-6.86,7.59-12.2,13.35-16.02,5.76-3.82,12.55-5.73,20.38-5.73,7.12,0,13.31,1.28,18.58,3.83,5.27,2.55,9.45,6.3,12.54,11.24,3.09,4.94,4.99,10.97,5.69,18.09h-7.1c-1.03-8.67-3.97-15.33-8.82-19.99-4.85-4.66-11.82-6.99-20.9-6.99-6.42,0-11.97,1.64-16.65,4.92-4.68,3.28-8.3,7.87-10.86,13.77s-3.83,12.81-3.83,20.73v13.77c0,7.73,1.24,14.58,3.72,20.55,2.48,5.97,6.03,10.63,10.64,13.98,4.61,3.35,10.13,5.02,16.55,5.02s11.31-.98,15.53-2.95c4.22-1.97,7.53-4.95,9.94-8.96,2.41-4,3.97-9,4.67-15h7.1Z"/>
    <path class="cls-1" d="M90.22,759.84c0-7.4,1.41-13.97,4.22-19.71,2.81-5.74,6.73-10.25,11.77-13.53,5.04-3.28,10.93-4.92,17.67-4.92s12.72,1.64,17.78,4.92c5.06,3.28,8.98,7.79,11.77,13.53,2.79,5.74,4.18,12.31,4.18,19.71v2.53c0,7.35-1.39,13.91-4.18,19.67-2.79,5.76-6.7,10.28-11.73,13.56-5.04,3.28-10.93,4.92-17.67,4.92s-12.72-1.64-17.78-4.92c-5.06-3.28-8.99-7.8-11.8-13.56s-4.22-12.32-4.22-19.67v-2.53ZM97.11,762.37c0,5.72,1.04,11.01,3.13,15.88,2.08,4.87,5.13,8.79,9.13,11.77,4,2.98,8.89,4.46,14.65,4.46s10.55-1.49,14.51-4.46c3.96-2.97,6.98-6.9,9.06-11.77,2.08-4.87,3.13-10.16,3.13-15.88v-2.53c0-5.62-1.04-10.87-3.13-15.74-2.08-4.87-5.12-8.82-9.1-11.84-3.98-3.02-8.85-4.53-14.61-4.53s-10.56,1.51-14.54,4.53c-3.98,3.02-7.02,6.97-9.1,11.84-2.08,4.87-3.13,10.12-3.13,15.74v2.53Z"/>
    <path class="cls-1" d="M192.03,780.15l4.15,18.97h-5.2l-22.06-76.03h7.24l15.88,57.05ZM214.94,723.1h5.13l-4.08,16.79-18.97,59.23h-5.2l5.27-19.18,17.85-56.84ZM238.76,779.59l5.34,19.53h-5.13l-19.32-59.3-3.86-16.72h5.27l17.71,56.49ZM259.84,723.1h7.31l-22.13,76.03h-5.2l4.43-19.11,15.6-56.91Z"/>
    <path class="cls-1" d="M279.02,759.84c0-7.4,1.41-13.97,4.22-19.71,2.81-5.74,6.73-10.25,11.77-13.53,5.04-3.28,10.93-4.92,17.67-4.92s12.72,1.64,17.78,4.92c5.06,3.28,8.98,7.79,11.77,13.53,2.79,5.74,4.18,12.31,4.18,19.71v2.53c0,7.35-1.39,13.91-4.18,19.67-2.79,5.76-6.7,10.28-11.73,13.56-5.04,3.28-10.93,4.92-17.67,4.92s-12.72-1.64-17.78-4.92c-5.06-3.28-8.99-7.8-11.8-13.56s-4.22-12.32-4.22-19.67v-2.53ZM285.9,762.37c0,5.72,1.04,11.01,3.13,15.88,2.08,4.87,5.13,8.79,9.13,11.77,4,2.98,8.89,4.46,14.65,4.46s10.55-1.49,14.51-4.46c3.96-2.97,6.98-6.9,9.06-11.77,2.08-4.87,3.13-10.16,3.13-15.88v-2.53c0-5.62-1.04-10.87-3.13-15.74-2.08-4.87-5.12-8.82-9.1-11.84-3.98-3.02-8.85-4.53-14.61-4.53s-10.56,1.51-14.54,4.53c-3.98,3.02-7.02,6.97-9.1,11.84-2.08,4.87-3.13,10.12-3.13,15.74v2.53Z"/>
    <path class="cls-1" d="M371.06,799.12h-6.96v-76.03h6.82l.14,12.79v63.24ZM398.75,728.79c-.89-.14-1.77-.26-2.63-.35-.87-.09-1.79-.14-2.78-.14-5.11,0-9.38,1.28-12.82,3.83-3.44,2.55-6.04,5.97-7.8,10.26s-2.71,9.05-2.85,14.3l-2.95.84c0-6.79.96-12.89,2.88-18.3,1.92-5.41,4.85-9.68,8.78-12.82,3.93-3.14,8.92-4.71,14.97-4.71,1.08,0,2.12.08,3.13.25,1.01.16,1.79.36,2.35.6l-.28,6.25Z"/>
    <path class="cls-1" d="M419.41,799.12h-6.89v-107.92h6.89v107.92ZM431.21,758.3l-14.05,13.07-1.26-6.39,11.8-12.23,30.85-29.65h8.92l-36.26,35.2ZM428.4,758.51l3.93-5.76,37.73,46.37h-8.43l-33.23-40.61Z"/>
    <path class="cls-1" d="M486.44,696.12c1.55,0,2.8.5,3.76,1.51.96,1.01,1.44,2.21,1.44,3.62s-.48,2.59-1.44,3.55c-.96.96-2.21,1.44-3.76,1.44s-2.85-.49-3.76-1.48c-.91-.98-1.37-2.15-1.37-3.51s.46-2.61,1.37-3.62c.91-1.01,2.17-1.51,3.76-1.51ZM489.95,799.12h-6.89v-76.03h6.89v76.03Z"/>
    <path class="cls-1" d="M520.37,799.12h-6.96v-76.03h6.67l.28,16.23v59.79ZM515.74,753.03c.47-5.67,1.99-10.87,4.57-15.6,2.58-4.73,6.03-8.54,10.36-11.42,4.33-2.88,9.38-4.32,15.14-4.32,5.11,0,9.45.94,13.03,2.81,3.58,1.87,6.35,4.87,8.29,8.99,1.94,4.12,2.92,9.53,2.92,16.23v49.4h-6.96v-49.47c0-5.62-.77-10.01-2.32-13.17-1.55-3.16-3.72-5.4-6.53-6.71-2.81-1.31-6.11-1.97-9.91-1.97-4.26,0-7.96.94-11.1,2.81-3.14,1.87-5.75,4.27-7.83,7.2s-3.67,6-4.74,9.2c-1.08,3.21-1.66,6.12-1.76,8.75l-3.16-2.74Z"/>
    <path class="cls-1" d="M617.97,800.53c-6,0-11.16-1.64-15.49-4.92-4.33-3.28-7.66-7.82-9.98-13.63-2.32-5.81-3.48-12.51-3.48-20.1v-1.48c0-7.92,1.16-14.77,3.48-20.55,2.32-5.78,5.66-10.26,10.01-13.42,4.36-3.16,9.56-4.74,15.6-4.74,4.36,0,8.22.7,11.59,2.11,3.37,1.41,6.29,3.38,8.75,5.94,2.46,2.55,4.46,5.59,6.01,9.1,1.55,3.51,2.69,7.38,3.44,11.59v22.98c-.75,5.11-2.35,9.71-4.81,13.81-2.46,4.1-5.77,7.34-9.94,9.73-4.17,2.39-9.23,3.58-15.18,3.58ZM619.38,829.55c-3.37,0-6.66-.49-9.87-1.48-3.21-.98-6.21-2.45-8.99-4.39-2.79-1.94-5.16-4.3-7.13-7.06l4.08-4.22c3,3.75,6.26,6.54,9.8,8.4,3.54,1.85,7.44,2.78,11.7,2.78,7.54,0,13.32-2.27,17.32-6.82s6.01-10.77,6.01-18.69v-58.25l.42-16.72h6.54v74.76c0,6.56-1.22,12.21-3.65,16.97-2.44,4.75-5.89,8.4-10.36,10.93-4.47,2.53-9.76,3.79-15.84,3.79ZM619.02,794.34c5.01,0,9.21-.92,12.58-2.78,3.37-1.85,6.08-4.32,8.12-7.41,2.04-3.09,3.5-6.49,4.39-10.19v-23.54c-.56-2.39-1.37-4.91-2.42-7.55-1.05-2.65-2.53-5.11-4.43-7.38-1.9-2.27-4.32-4.11-7.27-5.52s-6.56-2.11-10.82-2.11c-5.29,0-9.65,1.42-13.07,4.25-3.42,2.83-5.96,6.71-7.62,11.63-1.66,4.92-2.5,10.47-2.5,16.65v1.48c0,6.18.83,11.71,2.5,16.58,1.66,4.87,4.19,8.74,7.59,11.59,3.4,2.86,7.72,4.29,12.96,4.29Z"/>
    <path class="cls-1" d="M750.98,764.48c-.38,7.03-2.28,13.26-5.73,18.69-3.44,5.43-8.23,9.69-14.37,12.75-6.14,3.07-13.44,4.6-21.92,4.6-8.99,0-16.71-2.01-23.15-6.04-6.44-4.03-11.37-9.77-14.79-17.21-3.42-7.45-5.13-16.3-5.13-26.56v-5.41c0-10.3,1.78-19.18,5.34-26.63s8.55-13.2,14.97-17.25c6.42-4.05,13.98-6.08,22.7-6.08s16.23,1.6,22.27,4.81c6.04,3.21,10.71,7.59,14.02,13.14s5.26,11.86,5.87,18.94h-23.75c-.28-5.71-1.77-10.04-4.46-12.96-2.69-2.93-7.34-4.39-13.95-4.39-4.26,0-7.79,1.02-10.58,3.06-2.79,2.04-4.86,5.28-6.22,9.73-1.36,4.45-2.04,10.28-2.04,17.5v5.55c0,7.12.61,12.92,1.83,17.39,1.22,4.47,3.21,7.74,5.97,9.8,2.76,2.06,6.46,3.09,11.1,3.09,3.98,0,7.28-.58,9.91-1.76,2.62-1.17,4.62-2.99,6.01-5.45s2.17-5.56,2.35-9.31h23.75Z"/>
    <path class="cls-1" d="M804.8,765.4h-10.26c-4.68,0-7.99,1.09-9.91,3.27-1.92,2.18-2.88,4.7-2.88,7.55,0,2.11.76,3.84,2.28,5.2s3.52,2.04,6.01,2.04c2.72,0,5.04-.51,6.96-1.55,1.92-1.03,3.4-2.26,4.43-3.69,1.03-1.43,1.52-2.73,1.48-3.9l5.41,9.7c-.8,1.87-1.8,3.77-3.02,5.69-1.22,1.92-2.74,3.7-4.57,5.34-1.83,1.64-4.04,2.96-6.64,3.97s-5.7,1.51-9.31,1.51c-4.73,0-9.08-.97-13.03-2.92-3.96-1.94-7.1-4.64-9.42-8.08-2.32-3.44-3.48-7.41-3.48-11.91,0-7.92,2.92-14.08,8.75-18.48,5.83-4.4,14.72-6.6,26.67-6.6h10.54v12.86ZM801.92,748.74c0-3.19-.74-5.7-2.21-7.55-1.48-1.85-3.9-2.78-7.27-2.78-1.92,0-3.55.29-4.88.88-1.33.59-2.35,1.48-3.06,2.67-.7,1.19-1.05,2.71-1.05,4.53h-22.84c0-4.73,1.36-8.96,4.08-12.68,2.72-3.72,6.55-6.67,11.49-8.85,4.94-2.18,10.76-3.27,17.46-3.27,6,0,11.35,1.01,16.05,3.02,4.71,2.01,8.42,5.04,11.14,9.06,2.72,4.03,4.08,9.06,4.08,15.11v31.06c0,4.92.28,8.65.84,11.21.56,2.55,1.36,4.79,2.39,6.71v1.26h-22.98c-1.08-2.29-1.89-5.13-2.42-8.5-.54-3.37-.81-6.86-.81-10.47v-31.41Z"/>
    <path class="cls-1" d="M881.81,739.68h-48.69v-16.58h48.69v16.58ZM844.15,799.12v-82.14c0-8.81,2.6-15.55,7.8-20.24,5.2-4.68,12.23-7.03,21.08-7.03,2.01,0,3.91.14,5.69.42,1.78.28,3.51.63,5.2,1.05v17.57c-.84-.19-1.75-.33-2.71-.42-.96-.09-2.05-.14-3.27-.14-3.47,0-6.14.76-8.01,2.28-1.87,1.52-2.81,3.69-2.81,6.5v82.14h-22.98Z"/>
    <path class="cls-1" d="M927.27,800.53c-8.15,0-15.12-1.69-20.9-5.06-5.79-3.37-10.2-7.85-13.25-13.42-3.04-5.57-4.57-11.69-4.57-18.34v-2.67c0-7.45,1.41-14.15,4.22-20.1,2.81-5.95,6.91-10.64,12.3-14.09,5.39-3.44,11.97-5.16,19.74-5.16,7.35,0,13.57,1.54,18.66,4.6,5.08,3.07,8.96,7.4,11.63,13,2.67,5.6,4.01,12.22,4.01,19.85v9.63h-61.41v-15.04h39v-1.83c0-2.44-.45-4.54-1.34-6.32-.89-1.78-2.21-3.14-3.97-4.08-1.76-.94-3.99-1.41-6.71-1.41-3.42,0-6.09.95-8.01,2.85-1.92,1.9-3.28,4.43-4.08,7.59-.8,3.16-1.2,6.67-1.2,10.5v2.67c0,3.65.69,6.86,2.07,9.63,1.38,2.76,3.37,4.91,5.97,6.43,2.6,1.52,5.7,2.28,9.31,2.28,3.42,0,6.69-.62,9.8-1.86,3.12-1.24,5.77-3.24,7.98-6.01l10.75,12.86c-2.39,3.37-6.12,6.46-11.21,9.27-5.08,2.81-11.35,4.22-18.8,4.22ZM928.96,693.73h24.45l-19.74,22.13h-18.55l13.84-22.13Z"/>
  </g>
</svg>