<svg width="48" height="48" viewBox="0 0 48 48" fill="none" xmlns="http://www.w3.org/2000/svg">
<path d="M32.0509 41.1417L32.0515 34.7141C32.0518 31.1638 29.1737 28.2854 25.6233 28.2854H11.2289C7.67902 28.2854 4.80117 31.163 4.80077 34.7128L4.80005 41.1417M43.1995 41.142L43.2 34.7145C43.2004 31.1641 40.3223 28.2858 36.7719 28.2858M30.8127 8.12121C32.3913 9.29249 33.4144 11.1702 33.4144 13.2869C33.4144 15.4035 32.3913 17.2812 30.8127 18.4525M24.9876 13.2865C24.9876 16.8367 22.1097 19.7146 18.5595 19.7146C15.0094 19.7146 12.1314 16.8367 12.1314 13.2865C12.1314 9.73636 15.0094 6.8584 18.5595 6.8584C22.1097 6.8584 24.9876 9.73636 24.9876 13.2865Z" stroke="white" stroke-width="4" stroke-linecap="round" stroke-linejoin="round"/>
</svg>
