<svg width="29" height="29" viewBox="0 0 29 29" fill="none" xmlns="http://www.w3.org/2000/svg">
<path d="M21.1459 7.85449H21.1579M8.45835 2.41699H20.5417C23.8784 2.41699 26.5834 5.12194 26.5834 8.45866V20.542C26.5834 23.8787 23.8784 26.5837 20.5417 26.5837H8.45835C5.12163 26.5837 2.41669 23.8787 2.41669 20.542V8.45866C2.41669 5.12194 5.12163 2.41699 8.45835 2.41699ZM19.3334 13.7391C19.4825 14.7447 19.3107 15.7718 18.8425 16.6741C18.3743 17.5765 17.6334 18.3083 16.7253 18.7653C15.8172 19.2224 14.7881 19.3815 13.7844 19.22C12.7807 19.0585 11.8535 18.5846 11.1346 17.8657C10.4158 17.1469 9.94186 16.2196 9.78035 15.2159C9.61884 14.2122 9.77793 13.1831 10.235 12.275C10.6921 11.3669 11.4238 10.6261 12.3262 10.1579C13.2286 9.68964 14.2556 9.51787 15.2613 9.66699C16.2871 9.8191 17.2367 10.2971 17.97 11.0304C18.7033 11.7636 19.1812 12.7133 19.3334 13.7391Z" stroke="#99A5A5" stroke-width="2" stroke-linecap="round" stroke-linejoin="round"/>
</svg>
