<svg width="31" height="31" viewBox="0 0 31 31" fill="none" xmlns="http://www.w3.org/2000/svg">
<path d="M20.6666 10.333C22.7221 10.333 24.6933 11.1495 26.1467 12.6029C27.6001 14.0563 28.4166 16.0276 28.4166 18.083V27.1247H23.25V18.083C23.25 17.3979 22.9778 16.7408 22.4933 16.2563C22.0089 15.7718 21.3518 15.4997 20.6666 15.4997C19.9815 15.4997 19.3244 15.7718 18.84 16.2563C18.3555 16.7408 18.0833 17.3979 18.0833 18.083V27.1247H12.9166V18.083C12.9166 16.0276 13.7332 14.0563 15.1866 12.6029C16.64 11.1495 18.6112 10.333 20.6666 10.333Z" stroke="#99A5A5" stroke-width="2" stroke-linecap="round" stroke-linejoin="round"/>
<path d="M7.74998 11.6247H2.58331V27.1247H7.74998V11.6247Z" stroke="#99A5A5" stroke-width="2" stroke-linecap="round" stroke-linejoin="round"/>
<path d="M5.16665 7.74967C6.59338 7.74967 7.74998 6.59308 7.74998 5.16634C7.74998 3.73961 6.59338 2.58301 5.16665 2.58301C3.73991 2.58301 2.58331 3.73961 2.58331 5.16634C2.58331 6.59308 3.73991 7.74967 5.16665 7.74967Z" stroke="#99A5A5" stroke-width="2" stroke-linecap="round" stroke-linejoin="round"/>
</svg>
