<?xml version="1.0" encoding="UTF-8"?>
<svg id="Layer_1" data-name="Layer 1" xmlns="http://www.w3.org/2000/svg" viewBox="0 0 724.94 659.69">
  <defs>
    <style>
      .cls-1 {
        fill: #fff;
      }
    </style>
  </defs>
  <path class="cls-1" d="M504.11,659.69c-31.12,0-60.67-5.93-87.85-17.64-27.06-11.66-50.87-27.99-70.76-48.55-19.82-20.47-35.52-44.84-46.69-72.42-11.16-27.58-16.82-57.63-16.82-89.32s5.66-61.74,16.82-89.32c11.16-27.58,26.87-51.94,46.69-72.42,19.87-20.54,43.68-36.87,70.75-48.54,27.19-11.71,56.74-17.64,87.86-17.64,25.75,0,50.35,3.41,73.13,10.13,23.06,6.81,44.16,16.77,62.74,29.6,18.96,13.1,35.31,29.55,48.6,48.9,13.11,19.12,23.09,40.84,29.68,64.56l6.69,35.15h-109.44l-6.77-17.94c-7.94-21.05-20.58-36.77-38.66-48.07-18.89-11.81-40.47-17.55-65.97-17.55-16.31,0-30.91,3-44.63,9.17-14,6.29-25.83,14.68-36.17,25.65-10.31,10.94-18.59,24.11-24.6,39.14-6,15-9.04,31.55-9.04,49.19s3.04,34.19,9.04,49.17c6.01,15.05,14.29,28.22,24.61,39.15,10.34,10.98,22.17,19.37,36.16,25.65,13.72,6.17,28.32,9.17,44.64,9.17,25.5,0,47.07-5.74,65.97-17.55,18.07-11.3,30.72-27.02,38.66-48.07l6.77-17.94h109.44l-6.68,35.15c-6.6,23.74-16.58,45.46-29.67,64.55-13.29,19.37-29.64,35.83-48.6,48.91-18.58,12.84-39.69,22.8-62.74,29.6-22.78,6.72-47.38,10.13-73.13,10.13Z"/>
  <path class="cls-1" d="M406,367.21c-13.29,19.37-29.04,35.83-48,48.91-18.58,12.84-39.69,22.8-62.74,29.6-22.78,6.72-47.38,10.13-73.13,10.13-31.12,0-60.67-5.93-87.85-17.64-27.06-11.66-50.87-27.99-70.76-48.55-19.82-20.47-35.52-44.84-46.69-72.42C5.66,289.67,0,259.62,0,227.93s5.66-61.74,16.82-89.32c11.16-27.58,26.87-51.94,46.69-72.42,19.87-20.54,43.68-36.87,70.75-48.54C161.44,5.93,191,0,222.12,0c25.75,0,50.35,3.41,73.13,10.13,23.06,6.81,44.16,16.77,62.74,29.6,18.96,13.1,35.31,29.55,48.6,48.9,13.11,19.12,23.09,40.84,29.68,64.56l6.69,35.15h-109.44l-6.77-17.94c-7.94-21.05-20.58-36.77-38.66-48.07-18.89-11.81-40.47-17.55-65.97-17.55-16.31,0-30.91,3-44.63,9.17-14,6.29-25.83,14.68-36.17,25.65-10.31,10.94-18.59,24.11-24.6,39.14-6,15-9.04,31.55-9.04,49.19s3.04,34.19,9.04,49.17c6.01,15.05,14.29,28.22,24.61,39.15,10.34,10.98,22.17,19.37,36.16,25.65,13.72,6.17,28.32,9.17,44.64,9.17,25.5,0,61.81-6.13,80.71-17.94l103.17,34.08Z"/>
</svg>